<svg t="1715226028205" class="icon" viewBox="0 0 1024 1024" version="1.1" xmlns="http://www.w3.org/2000/svg" p-id="1605" id="mx_n_1715226028206" width="64" height="64"><path d="M573.952 511.872l325.76-325.728a42.688 42.688 0 0 0 0-60.032l-1.888-1.76a42.624 42.624 0 0 0-60 0l-325.728 326.4-325.632-326.4a42.624 42.624 0 0 0-60 0l-1.792 1.792a41.888 41.888 0 0 0 0 60.032l325.76 325.696L124.704 837.856a42.688 42.688 0 0 0 0 60.032l1.792 1.792a42.624 42.624 0 0 0 60 0l325.696-325.888 325.728 325.856a42.624 42.624 0 0 0 60 0l1.792-1.792a42.688 42.688 0 0 0 0-60.032z" p-id="1606" fill="#ff0000"></path></svg>