<!-- <svg t="1715225175054" class="icon" viewBox="0 0 1024 1024" version="1.1" xmlns="http://www.w3.org/2000/svg" p-id="2634" width="64" height="64"><path d="M826 339q18 0 32 14t14 32.5q0 18.5-14 32.5t-33 14H186q-19 0-33-14t-14-32.5q0-18.5 14-33t33-14.5h640v1z m0 272q18 0 32 14t14 33q0 19-14 33t-33 14H186q-19 0-33-14t-14-33q0-19 14-33t33-14h640zM186 160q-19 0-33-14t-14-33q0-19 14-33t33-14h639q19 0 33 14t14 33q0 19-14 33t-33 14H186z" fill="#ff0000" p-id="2635"></path></svg> -->

<!-- <svg t="1715225216406" class="icon" viewBox="0 0 1024 1024" version="1.1" xmlns="http://www.w3.org/2000/svg" p-id="1155" width="200" height="200"><path d="M878.528 543.168H374.144a31.264 31.264 0 1 1 0-62.368h504.384a31.264 31.264 0 1 1 0 62.368z m0-249.408H374.144a31.264 31.264 0 1 1 0-62.368h504.384a31.264 31.264 0 1 1 0 62.368zM178.912 823.776a62.496 62.496 0 1 1 66.912-62.336 64.768 64.768 0 0 1-66.912 62.336z m0-249.408A62.496 62.496 0 1 1 245.824 512a64.768 64.768 0 0 1-66.912 62.368z m0-249.408a62.496 62.496 0 1 1 66.912-62.368 64.768 64.768 0 0 1-66.912 62.368z m195.2 405.312h504.416a31.264 31.264 0 1 1 0 62.368H374.144a31.264 31.264 0 1 1 0-62.368z m0 0" p-id="1156" fill="#ff0000"></path></svg> -->

<svg t="1715225275118" class="icon" viewBox="0 0 1024 1024" version="1.1" xmlns="http://www.w3.org/2000/svg" p-id="5036" width="64" height="64"><path d="M904 160H120c-4.4 0-8 3.6-8 8v64c0 4.4 3.6 8 8 8h784c4.4 0 8-3.6 8-8v-64c0-4.4-3.6-8-8-8z m0 624H120c-4.4 0-8 3.6-8 8v64c0 4.4 3.6 8 8 8h784c4.4 0 8-3.6 8-8v-64c0-4.4-3.6-8-8-8z m0-312H120c-4.4 0-8 3.6-8 8v64c0 4.4 3.6 8 8 8h784c4.4 0 8-3.6 8-8v-64c0-4.4-3.6-8-8-8z" p-id="5037" fill="#ff0000"></path></svg>